HIERARCHY
ROOT pelvis
{
  OFFSET 0 100 0
  CHANNELS 6 Xposition Yposition Zposition Zrotation Xrotation Yrotation
  JOINT pelvis_right_femur
  {
    OFFSET -10.78128 -3.44521 -0.5502486
    CHANNELS 3 Zrotation Xrotation Yrotation
    JOINT right_femur_tibia
    {
      OFFSET -0.8047443 -44.0398 -0.1307829
      CHANNELS 3 Zrotation Xrotation Yrotation
      JOINT right_tibia_foot
      {
        OFFSET 3.006224 -47.83518 -5
        CHANNELS 3 Zrotation Xrotation Yrotation
        End Site
        {
          OFFSET 0 -5 15
        }
      }
    }
  }
  JOINT pelvis_left_femur
  {
    OFFSET 10.78128 -3.44521 -0.5502486
    CHANNELS 3 Zrotation Xrotation Yrotation
    JOINT left_femur_tibia
    {
      OFFSET 0.8047443 -44.0398 -0.1307829
      CHANNELS 3 Zrotation Xrotation Yrotation
      JOINT left_tibia_foot
      {
        OFFSET -4.370144 -48.10324 -4.275266
        CHANNELS 3 Zrotation Xrotation Yrotation
        End Site
        {
          OFFSET 0 -5 15
        }
      }
    }
  }
  JOINT pelvis_spine1
  {
    OFFSET 0 6.468898 -3.129235
    CHANNELS 3 Zrotation Xrotation Yrotation
    JOINT spine1
    {
      OFFSET 0 23.15396 4.99043
      CHANNELS 3 Zrotation Xrotation Yrotation
      JOINT spine2
      {
        OFFSET 0 20.79997 -5.064912
        CHANNELS 3 Zrotation Xrotation Yrotation
        JOINT neck
        {
          OFFSET 0 14.38658 9.616178
          CHANNELS 3 Zrotation Xrotation Yrotation
          End Site
          {
            OFFSET 0 20 0
          }
        }
      }
      JOINT right_manubrium
      {
        OFFSET -5.722621 16.35077 3.967754
        CHANNELS 3 Zrotation Xrotation Yrotation
        JOINT right_clavicle
        {
          OFFSET -13.16364 1.694482 -4.693211
          CHANNELS 3 Zrotation Xrotation Yrotation
          JOINT right_humerus
          {
            OFFSET -28.5034 -0.3100689 -2.792744
            CHANNELS 3 Zrotation Xrotation Yrotation
            JOINT right_radius
            {
              OFFSET -25.15693 0.02248979 -1.271978
              CHANNELS 3 Zrotation Xrotation Yrotation
              End Site
              {
                OFFSET -15 0 0
              }
            }
          }
        }
      }
      JOINT left_manubrium
      {
        OFFSET 5.722621 16.35077 3.967754
        CHANNELS 3 Zrotation Xrotation Yrotation
        JOINT left_clavicle
        {
          OFFSET 13.16364 1.694482 -4.693211
          CHANNELS 3 Zrotation Xrotation Yrotation
          JOINT left_humerus
          {
            OFFSET 29.39168 -1.063119 -2.237045
            CHANNELS 3 Zrotation Xrotation Yrotation
            JOINT left_radius
            {
              OFFSET 24.59957 -0.9528479 0.9047498
              CHANNELS 3 Zrotation Xrotation Yrotation
              End Site
              {
                OFFSET 15 -0 -0
              }
            }
          }
        }
      }
    }
  }
}
MOTION
Frames: 23
Frame Time: 0.0416666666667
-673.2479 113.8225 -333.3833 9.396417 -1.563341 86.2565 5.631956 13.75385 0.3999201 -0 19.02087 -0 -9.497772 -7.601303 -0.5374538 3.330549 -14.75918 -3.681295 -0 9.740793 -0 3.186689 -0.5517976 15.15385 1.440059 -4.631597 7.396595 -0.02978079 17.3284 -5.457852 0.8322557 18.73597 2.937339 1.328322 -18.04148 3.900833 -0.3012052 -31.42517 13.42749 88.23339 14.84409 -9.664905 -0 0 28.62917 -26.21676 18.42601 17.51192 2.323482 -23.34048 -8.739503 -95.02674 9.154777 37.82214 0 0 -9.186683 5.988796 14.39884 6.603391
-667.2439 113.8019 -334.2168 9.380311 -1.658043 85.68351 5.631956 13.75385 0.3999201 -0 19.02087 -0 -9.497772 -7.601303 -0.5374538 3.330549 -14.75918 -3.681295 -0 9.740793 -0 3.186689 -0.5517976 15.15385 1.440059 -4.631597 7.396595 -0.02978079 17.3284 -5.457852 0.8322557 18.73597 2.937339 1.328322 -18.04148 3.900833 -0.3012052 -31.42517 13.42749 88.23339 14.84409 -9.664905 -0 0 28.62917 -26.21676 18.42601 17.51192 2.323482 -23.34048 -8.739503 -95.02674 9.154777 37.82214 0 0 -9.186683 5.988796 14.39884 6.603391
-661.2318 113.7812 -334.9895 9.363258 -1.752579 85.11047 5.631956 13.75385 0.3999201 -0 19.02087 -0 -9.497772 -7.601303 -0.5374538 3.330549 -14.75918 -3.681295 -0 9.740793 -0 3.186689 -0.5517976 15.15385 1.440059 -4.631597 7.396595 -0.02978079 17.3284 -5.457852 0.8322557 18.73597 2.937339 1.328322 -18.04148 3.900833 -0.3012052 -31.42517 13.42749 88.23339 14.84409 -9.664905 -0 0 28.62917 -26.21676 18.42601 17.51192 2.323482 -23.34048 -8.739503 -95.02674 9.154777 37.82214 0 0 -9.186683 5.988796 14.39884 6.603391
-655.2121 113.7605 -335.7012 9.345259 -1.846939 84.53736 5.631956 13.75385 0.3999201 -0 19.02087 -0 -9.497772 -7.601303 -0.5374538 3.330549 -14.75918 -3.681295 -0 9.740793 -0 3.186689 -0.5517976 15.15385 1.440059 -4.631597 7.396595 -0.02978079 17.3284 -5.457852 0.8322557 18.73597 2.937339 1.328322 -18.04148 3.900833 -0.3012052 -31.42517 13.42749 88.23339 14.84409 -9.664905 -0 0 28.62917 -26.21676 18.42601 17.51192 2.323482 -23.34048 -8.739503 -95.02674 9.154777 37.82214 0 0 -9.186683 5.988796 14.39884 6.603391
-649.1856 113.7399 -336.3519 9.326315 -1.941115 83.9642 5.631956 13.75385 0.3999201 -0 19.02087 -0 -9.497772 -7.601303 -0.5374538 3.330549 -14.75918 -3.681295 -0 9.740793 -0 3.186689 -0.5517976 15.15385 1.440059 -4.631597 7.396595 -0.02978079 17.3284 -5.457852 0.8322557 18.73597 2.937339 1.328322 -18.04148 3.900833 -0.3012052 -31.42517 13.42749 88.23339 14.84409 -9.664905 -0 0 28.62917 -26.21676 18.42601 17.51192 2.323482 -23.34048 -8.739503 -95.02674 9.154777 37.82214 0 0 -9.186683 5.988796 14.39884 6.603391
-643.1527 113.7192 -336.9415 9.306428 -2.035097 83.39098 5.631956 13.75385 0.3999201 -0 19.02087 -0 -9.497772 -7.601303 -0.5374538 3.330549 -14.75918 -3.681295 -0 9.740793 -0 3.186689 -0.5517976 15.15385 1.440059 -4.631597 7.396595 -0.02978079 17.3284 -5.457852 0.8322557 18.73597 2.937339 1.328322 -18.04148 3.900833 -0.3012052 -31.42517 13.42749 88.23339 14.84409 -9.664905 -0 0 28.62917 -26.21676 18.42601 17.51192 2.323482 -23.34048 -8.739503 -95.02674 9.154777 37.82214 0 0 -9.186683 5.988796 14.39884 6.603391
-637.1142 113.6986 -337.47 9.285601 -2.128875 82.81768 5.631956 13.75385 0.3999201 -0 19.02087 -0 -9.497772 -7.601303 -0.5374538 3.330549 -14.75918 -3.681295 -0 9.740793 -0 3.186689 -0.5517976 15.15385 1.440059 -4.631597 7.396595 -0.02978079 17.3284 -5.457852 0.8322557 18.73597 2.937339 1.328322 -18.04148 3.900833 -0.3012052 -31.42517 13.42749 88.23339 14.84409 -9.664905 -0 0 28.62917 -26.21676 18.42601 17.51192 2.323482 -23.34048 -8.739503 -95.02674 9.154777 37.82214 0 0 -9.186683 5.988796 14.39884 6.603391
-631.0707 113.6779 -337.9372 9.263834 -2.22244 82.24432 5.631956 13.75385 0.3999201 -0 19.02087 -0 -9.497772 -7.601303 -0.5374538 3.330549 -14.75918 -3.681295 -0 9.740793 -0 3.186689 -0.5517976 15.15385 1.440059 -4.631597 7.396595 -0.02978079 17.3284 -5.457852 0.8322557 18.73597 2.937339 1.328322 -18.04148 3.900833 -0.3012052 -31.42517 13.42749 88.23339 14.84409 -9.664905 -0 0 28.62917 -26.21676 18.42601 17.51192 2.323482 -23.34048 -8.739503 -95.02674 9.154777 37.82214 0 0 -9.186683 5.988796 14.39884 6.603391
-625.0227 113.6572 -338.3432 9.24113 -2.315783 81.67089 5.631956 13.75385 0.3999201 -0 19.02087 -0 -9.497772 -7.601303 -0.5374538 3.330549 -14.75918 -3.681295 -0 9.740793 -0 3.186689 -0.5517976 15.15385 1.440059 -4.631597 7.396595 -0.02978079 17.3284 -5.457852 0.8322557 18.73597 2.937339 1.328322 -18.04148 3.900833 -0.3012052 -31.42517 13.42749 88.23339 14.84409 -9.664905 -0 0 28.62917 -26.21676 18.42601 17.51192 2.323482 -23.34048 -8.739503 -95.02674 9.154777 37.82214 0 0 -9.186683 5.988796 14.39884 6.603391
-618.9709 113.6366 -338.6879 9.21749 -2.408894 81.09737 5.631956 13.75385 0.3999201 -0 19.02087 -0 -9.497772 -7.601303 -0.5374538 3.330549 -14.75918 -3.681295 -0 9.740793 -0 3.186689 -0.5517976 15.15385 1.440059 -4.631597 7.396595 -0.02978079 17.3284 -5.457852 0.8322557 18.73597 2.937339 1.328322 -18.04148 3.900833 -0.3012052 -31.42517 13.42749 88.23339 14.84409 -9.664905 -0 0 28.62917 -26.21676 18.42601 17.51192 2.323482 -23.34048 -8.739503 -95.02674 9.154777 37.82214 0 0 -9.186683 5.988796 14.39884 6.603391
-612.916 113.6159 -338.9712 9.192917 -2.501764 80.52379 5.631956 13.75385 0.3999201 -0 19.02087 -0 -9.497772 -7.601303 -0.5374538 3.330549 -14.75918 -3.681295 -0 9.740793 -0 3.186689 -0.5517976 15.15385 1.440059 -4.631597 7.396595 -0.02978079 17.3284 -5.457852 0.8322557 18.73597 2.937339 1.328322 -18.04148 3.900833 -0.3012052 -31.42517 13.42749 88.23339 14.84409 -9.664905 -0 0 28.62917 -26.21676 18.42601 17.51192 2.323482 -23.34048 -8.739503 -95.02674 9.154777 37.82214 0 0 -9.186683 5.988796 14.39884 6.603391
-606.8584 113.5952 -339.1932 9.167413 -2.594384 79.95012 5.631956 13.75385 0.3999201 -0 19.02087 -0 -9.497772 -7.601303 -0.5374538 3.330549 -14.75918 -3.681295 -0 9.740793 -0 3.186689 -0.5517976 15.15385 1.440059 -4.631597 7.396595 -0.02978079 17.3284 -5.457852 0.8322557 18.73597 2.937339 1.328322 -18.04148 3.900833 -0.3012052 -31.42517 13.42749 88.23339 14.84409 -9.664905 -0 0 28.62917 -26.21676 18.42601 17.51192 2.323482 -23.34048 -8.739503 -95.02674 9.154777 37.82214 0 0 -9.186683 5.988796 14.39884 6.603391
-600.799 113.5746 -339.3538 9.140979 -2.686744 79.37636 5.631956 13.75385 0.3999201 -0 19.02087 -0 -9.497772 -7.601303 -0.5374538 3.330549 -14.75918 -3.681295 -0 9.740793 -0 3.186689 -0.5517976 15.15385 1.440059 -4.631597 7.396595 -0.02978079 17.3284 -5.457852 0.8322557 18.73597 2.937339 1.328322 -18.04148 3.900833 -0.3012052 -31.42517 13.42749 88.23339 14.84409 -9.664905 -0 0 28.62917 -26.21676 18.42601 17.51192 2.323482 -23.34048 -8.739503 -95.02674 9.154777 37.82214 0 0 -9.186683 5.988796 14.39884 6.603391
-594.7382 113.5539 -339.453 9.11362 -2.778834 78.80252 5.631956 13.75385 0.3999201 -0 19.02087 -0 -9.497772 -7.601303 -0.5374538 3.330549 -14.75918 -3.681295 -0 9.740793 -0 3.186689 -0.5517976 15.15385 1.440059 -4.631597 7.396595 -0.02978079 17.3284 -5.457852 0.8322557 18.73597 2.937339 1.328322 -18.04148 3.900833 -0.3012052 -31.42517 13.42749 88.23339 14.84409 -9.664905 -0 0 28.62917 -26.21676 18.42601 17.51192 2.323482 -23.34048 -8.739503 -95.02674 9.154777 37.82214 0 0 -9.186683 5.988796 14.39884 6.603391
-588.6767 113.5332 -339.4908 9.085335 -2.870647 78.22859 5.631956 13.75385 0.3999201 -0 19.02087 -0 -9.497772 -7.601303 -0.5374538 3.330549 -14.75918 -3.681295 -0 9.740793 -0 3.186689 -0.5517976 15.15385 1.440059 -4.631597 7.396595 -0.02978079 17.3284 -5.457852 0.8322557 18.73597 2.937339 1.328322 -18.04148 3.900833 -0.3012052 -31.42517 13.42749 88.23339 14.84409 -9.664905 -0 0 28.62917 -26.21676 18.42601 17.51192 2.323482 -23.34048 -8.739503 -95.02674 9.154777 37.82214 0 0 -9.186683 5.988796 14.39884 6.603391
-582.6152 113.5126 -339.4671 9.05613 -2.962172 77.65457 5.631956 13.75385 0.3999201 -0 19.02087 -0 -9.497772 -7.601303 -0.5374538 3.330549 -14.75918 -3.681295 -0 9.740793 -0 3.186689 -0.5517976 15.15385 1.440059 -4.631597 7.396595 -0.02978079 17.3284 -5.457852 0.8322557 18.73597 2.937339 1.328322 -18.04148 3.900833 -0.3012052 -31.42517 13.42749 88.23339 14.84409 -9.664905 -0 0 28.62917 -26.21676 18.42601 17.51192 2.323482 -23.34048 -8.739503 -95.02674 9.154777 37.82214 0 0 -9.186683 5.988796 14.39884 6.603391
-576.5542 113.4919 -339.3821 9.026004 -3.0534 77.08045 5.631956 13.75385 0.3999201 -0 19.02087 -0 -9.497772 -7.601303 -0.5374538 3.330549 -14.75918 -3.681295 -0 9.740793 -0 3.186689 -0.5517976 15.15385 1.440059 -4.631597 7.396595 -0.02978079 17.3284 -5.457852 0.8322557 18.73597 2.937339 1.328322 -18.04148 3.900833 -0.3012052 -31.42517 13.42749 88.23339 14.84409 -9.664905 -0 0 28.62917 -26.21676 18.42601 17.51192 2.323482 -23.34048 -8.739503 -95.02674 9.154777 37.82214 0 0 -9.186683 5.988796 14.39884 6.603391
-570.4944 113.4713 -339.2356 8.994963 -3.144322 76.50624 5.631956 13.75385 0.3999201 -0 19.02087 -0 -9.497772 -7.601303 -0.5374538 3.330549 -14.75918 -3.681295 -0 9.740793 -0 3.186689 -0.5517976 15.15385 1.440059 -4.631597 7.396595 -0.02978079 17.3284 -5.457852 0.8322557 18.73597 2.937339 1.328322 -18.04148 3.900833 -0.3012052 -31.42517 13.42749 88.23339 14.84409 -9.664905 -0 0 28.62917 -26.21676 18.42601 17.51192 2.323482 -23.34048 -8.739503 -95.02674 9.154777 37.82214 0 0 -9.186683 5.988796 14.39884 6.603391
-564.4364 113.4506 -339.0277 8.963007 -3.234928 75.93192 5.631956 13.75385 0.3999201 -0 19.02087 -0 -9.497772 -7.601303 -0.5374538 3.330549 -14.75918 -3.681295 -0 9.740793 -0 3.186689 -0.5517976 15.15385 1.440059 -4.631597 7.396595 -0.02978079 17.3284 -5.457852 0.8322557 18.73597 2.937339 1.328322 -18.04148 3.900833 -0.3012052 -31.42517 13.42749 88.23339 14.84409 -9.664905 -0 0 28.62917 -26.21676 18.42601 17.51192 2.323482 -23.34048 -8.739503 -95.02674 9.154777 37.82214 0 0 -9.186683 5.988796 14.39884 6.603391
-558.3808 113.4299 -338.7585 8.930141 -3.325211 75.35751 5.631956 13.75385 0.3999201 -0 19.02087 -0 -9.497772 -7.601303 -0.5374538 3.330549 -14.75918 -3.681295 -0 9.740793 -0 3.186689 -0.5517976 15.15385 1.440059 -4.631597 7.396595 -0.02978079 17.3284 -5.457852 0.8322557 18.73597 2.937339 1.328322 -18.04148 3.900833 -0.3012052 -31.42517 13.42749 88.23339 14.84409 -9.664905 -0 0 28.62917 -26.21676 18.42601 17.51192 2.323482 -23.34048 -8.739503 -95.02674 9.154777 37.82214 0 0 -9.186683 5.988796 14.39884 6.603391
-552.3282 113.4093 -338.4279 8.896366 -3.415159 74.78299 5.631956 13.75385 0.3999201 -0 19.02087 -0 -9.497772 -7.601303 -0.5374538 3.330549 -14.75918 -3.681295 -0 9.740793 -0 3.186689 -0.5517976 15.15385 1.440059 -4.631597 7.396595 -0.02978079 17.3284 -5.457852 0.8322557 18.73597 2.937339 1.328322 -18.04148 3.900833 -0.3012052 -31.42517 13.42749 88.23339 14.84409 -9.664905 -0 0 28.62917 -26.21676 18.42601 17.51192 2.323482 -23.34048 -8.739503 -95.02674 9.154777 37.82214 0 0 -9.186683 5.988796 14.39884 6.603391
-546.2793 113.3886 -338.0361 8.861686 -3.504766 74.20836 5.631956 13.75385 0.3999201 -0 19.02087 -0 -9.497772 -7.601303 -0.5374538 3.330549 -14.75918 -3.681295 -0 9.740793 -0 3.186689 -0.5517976 15.15385 1.440059 -4.631597 7.396595 -0.02978079 17.3284 -5.457852 0.8322557 18.73597 2.937339 1.328322 -18.04148 3.900833 -0.3012052 -31.42517 13.42749 88.23339 14.84409 -9.664905 -0 0 28.62917 -26.21676 18.42601 17.51192 2.323482 -23.34048 -8.739503 -95.02674 9.154777 37.82214 0 0 -9.186683 5.988796 14.39884 6.603391
-540.2347 113.3679 -337.5829 8.826104 -3.59402 73.63362 5.631956 13.75385 0.3999201 -0 19.02087 -0 -9.497772 -7.601303 -0.5374538 3.330549 -14.75918 -3.681295 -0 9.740793 -0 3.186689 -0.5517976 15.15385 1.440059 -4.631597 7.396595 -0.02978079 17.3284 -5.457852 0.8322557 18.73597 2.937339 1.328322 -18.04148 3.900833 -0.3012052 -31.42517 13.42749 88.23339 14.84409 -9.664905 -0 0 28.62917 -26.21676 18.42601 17.51192 2.323482 -23.34048 -8.739503 -95.02674 9.154777 37.82214 0 0 -9.186683 5.988796 14.39884 6.603391
